<svg width="63" height="87" viewBox="0 0 63 87" fill="none" xmlns="http://www.w3.org/2000/svg">
<g clip-path="url(#clip0_6_10)">
<path d="M6.78623 18.1818C3.03835 18.1818 4.9427e-06 21.2344 4.9427e-06 25C4.9427e-06 28.7656 3.03835 31.8181 6.78623 31.8181H32.6878C36.4358 31.8181 39.4741 28.7656 39.4741 25C39.4741 21.2344 36.4358 18.1818 32.6878 18.1818H6.78623Z" fill="#8381DC"/>
<path d="M-1.21271e-05 0V13.6364H11.5143L33.2307 0H-1.21271e-05Z" fill="#8381DC"/>
<path d="M38.1168 50C51.8594 50 63 38.8072 63 25C63 11.1929 51.8594 0 38.1168 0L15.9468 13.6364H38.1168C44.3635 13.6364 49.4274 18.724 49.4274 25C49.4274 31.2759 44.3635 36.3637 38.1168 36.3637H15.9468H7.15256e-07V50H38.1168Z" fill="#8381DC"/>
</g>
<g clip-path="url(#clip1_6_10)">
<path d="M6.75684 68.8182C3.02518 68.8182 -9.92408e-06 65.7656 -9.92408e-06 62C-9.92408e-06 58.2344 3.02518 55.1819 6.75684 55.1819H32.5463C36.278 55.1819 39.3032 58.2344 39.3032 62C39.3032 65.7656 36.278 68.8182 32.5463 68.8182H6.75684Z" fill="#8381DC"/>
<path d="M-1.62251e-05 87V73.3636H11.4645L33.0868 87H-1.62251e-05Z" fill="#8381DC"/>
<path d="M37.9518 37C51.6349 37 62.7273 48.1928 62.7273 62C62.7273 75.8071 51.6349 87 37.9518 87L15.8778 73.3636H37.9518C44.1714 73.3636 49.2134 68.276 49.2134 62C49.2134 55.7241 44.1714 50.6363 37.9518 50.6363H15.8778H-7.689e-06V37H37.9518Z" fill="#8381DC"/>
</g>
<defs>
<clipPath id="clip0_6_10">
<rect width="63" height="50" fill="white" transform="matrix(-1 0 0 1 63 0)"/>
</clipPath>
<clipPath id="clip1_6_10">
<rect width="62.7273" height="50" fill="white" transform="matrix(-1 0 0 -1 62.7273 87)"/>
</clipPath>
</defs>
</svg>
